<svg width="4320" height="1080" viewBox="0 0 4320 1080" fill="none" xmlns="http://www.w3.org/2000/svg">
  <rect width="4320" height="1080" fill="#3CF4C8"/>
  <path d="M1523 635.952H1600.29C1655.64 635.952 1686.37 602.41 1686.37 541.856V541.6C1686.37 483.991 1655.13 451.218 1600.29 451.218H1523V635.952ZM1569.81 598.186V488.984H1591.87C1621.33 488.984 1638.67 508.187 1638.67 542.496V542.752C1638.67 579.238 1622.22 598.186 1591.87 598.186H1569.81Z" fill="black"/>
  <path d="M1721.19 635.952H1765.57V530.975H1767.87L1844.9 635.952H1882.01V451.218H1837.63V555.17H1835.33L1758.56 451.218H1721.19V635.952Z" fill="black"/>
  <path d="M1913.13 635.952H1962.23L1973.58 595.369H2033.65L2045 635.952H2094.1L2032.25 451.218H1974.98L1913.13 635.952ZM2002.4 491.928H2004.83L2024.21 561.572H1983.02L2002.4 491.928Z" fill="black"/>
  <path d="M2151.24 635.952H2159.78L2199.95 506.01H2200.59L2240.77 635.952H2249.31L2289.61 498.201H2283.23L2245.23 628.783H2244.72L2204.42 498.201H2196.13L2155.83 628.783H2155.32L2117.95 498.201H2111.44L2151.24 635.952Z" fill="black"/>
  <path d="M2370.6 638C2407.58 638 2431.17 610.347 2431.17 567.204V566.948C2431.17 523.677 2407.58 496.153 2370.6 496.153C2333.74 496.153 2310.14 523.677 2310.14 566.948V567.204C2310.14 610.347 2333.74 638 2370.6 638ZM2370.6 632.111C2337.69 632.111 2316.39 606.507 2316.39 567.204V566.948C2316.39 527.646 2337.69 502.042 2370.6 502.042C2403.37 502.042 2424.8 527.774 2424.8 566.948V567.204C2424.8 606.379 2403.37 632.111 2370.6 632.111Z" fill="black"/>
  <path d="M2470.58 635.952H2476.96V549.025C2476.96 522.525 2494.05 502.17 2515.98 502.17C2522.23 502.17 2527.21 502.81 2532.69 504.858V498.457C2527.21 496.793 2522.74 496.153 2516.24 496.153C2497.62 496.153 2483.21 507.035 2477.6 525.342H2476.96V498.201H2470.58V635.952Z" fill="black"/>
  <path d="M2565.21 635.952H2571.59V580.263L2592.12 561.315L2655 635.952H2663.29L2597.1 557.347L2662.9 498.201H2653.98L2572.23 571.429H2571.59V443.152H2565.21V635.952Z" fill="black"/>
  <path d="M2707.41 635.952H2713.79V503.962H2747.84V498.201H2713.79V475.926C2713.79 458.131 2722.85 447.761 2738.92 447.761C2742.87 447.761 2746.69 448.017 2749.25 448.273V442.64C2745.67 442.256 2742.49 442 2738.41 442C2718.64 442 2707.41 454.162 2707.41 475.926V498.201H2684.59V503.962H2707.41V635.952Z" fill="black"/>
  <path d="M2785.34 635.952H2791.71V443.152H2785.34V635.952Z" fill="black"/>
  <path d="M2892.98 638C2929.96 638 2953.56 610.347 2953.56 567.204V566.948C2953.56 523.677 2929.96 496.153 2892.98 496.153C2856.12 496.153 2832.53 523.677 2832.53 566.948V567.204C2832.53 610.347 2856.12 638 2892.98 638ZM2892.98 632.111C2860.07 632.111 2838.77 606.507 2838.77 567.204V566.948C2838.77 527.646 2860.07 502.042 2892.98 502.042C2925.75 502.042 2947.18 527.774 2947.18 566.948V567.204C2947.18 606.379 2925.75 632.111 2892.98 632.111Z" fill="black"/>
  <path d="M3013.62 635.952H3022.17L3062.34 506.01H3062.98L3103.15 635.952H3111.7L3152 498.201H3145.62L3107.62 628.783H3107.11L3066.81 498.201H3058.52L3018.22 628.783H3017.71L2980.34 498.201H2973.83L3013.62 635.952Z" fill="black"/>
  <path d="M1330.33 495.083L1240.5 584.917L1199.67 544.083" stroke="black" stroke-width="24" stroke-linecap="square"/>
</svg>
