<svg width="4320" height="1080" viewBox="0 0 4320 1080" fill="none" xmlns="http://www.w3.org/2000/svg">
<rect width="4320" height="1080" fill="#00F3C8"/>
<path d="M1613.36 629H1682.7C1735.43 629 1765.34 596.773 1765.34 539.889V539.645C1765.34 484.469 1735.07 452.853 1682.7 452.853H1613.36V629ZM1650.23 598.604V483.248H1676.84C1708.82 483.248 1727.74 504 1727.74 540.255V540.499C1727.74 578.097 1709.43 598.604 1676.84 598.604H1650.23Z" fill="black"/>
<path d="M1800.37 629H1835.65V516.329H1837.61L1919.15 629H1949.67V452.853H1914.39V565.035H1912.43L1831.14 452.853H1800.37V629Z" fill="black"/>
<path d="M1979.94 629H2018.64L2031.7 586.275H2093.83L2106.89 629H2145.71L2084.43 452.853H2041.1L1979.94 629ZM2061.73 488.009H2063.92L2085.41 558.688H2040.12L2061.73 488.009Z" fill="black"/>
<path d="M2199.91 629H2211.14L2247.52 510.104H2248.37L2284.87 629H2295.98L2334.19 497.53H2324.67L2290.73 617.77H2289.88L2253.38 497.53H2242.63L2206.14 617.77H2205.28L2171.71 497.53H2162.19L2199.91 629Z" fill="black"/>
<path d="M2411.7 631.075C2447.47 631.075 2470.3 604.83 2470.3 563.448V563.204C2470.3 521.7 2447.47 495.577 2411.7 495.577C2375.94 495.577 2353.11 521.7 2353.11 563.204V563.448C2353.11 604.83 2375.94 631.075 2411.7 631.075ZM2411.7 622.408C2381.67 622.408 2362.75 599.459 2362.75 563.448V563.204C2362.75 527.071 2381.67 504.122 2411.7 504.122C2441.61 504.122 2460.65 527.193 2460.65 563.204V563.448C2460.65 599.337 2441.61 622.408 2411.7 622.408Z" fill="black"/>
<path d="M2507.04 629H2516.44V546.358C2516.44 522.433 2532.43 504.488 2553.3 504.488C2558.92 504.488 2563.56 505.221 2568.56 506.808V497.408C2564.05 496.065 2559.77 495.577 2553.91 495.577C2536.21 495.577 2522.79 505.465 2517.42 522.066H2516.44V497.53H2507.04V629Z" fill="black"/>
<path d="M2599.08 629H2608.48V576.632L2626.55 559.908L2684.29 629H2696.49L2633.63 553.805L2695.27 497.53H2682.94L2609.46 564.669H2608.48V445.162H2599.08V629Z" fill="black"/>
<path d="M2736.9 629H2746.3V505.831H2778.28V497.53H2746.3V477.999C2746.3 461.642 2754.48 452.242 2769.73 452.242C2773.52 452.242 2777.18 452.486 2779.62 452.853V444.796C2776.08 444.308 2772.66 444.063 2768.39 444.063C2748.13 444.063 2736.9 455.782 2736.9 477.877V497.53H2715.05V505.831H2736.9V629Z" fill="black"/>
<path d="M2813.19 629H2822.59V445.162H2813.19V629Z" fill="black"/>
<path d="M2919.27 631.075C2955.04 631.075 2977.86 604.83 2977.86 563.448V563.204C2977.86 521.7 2955.04 495.577 2919.27 495.577C2883.5 495.577 2860.68 521.7 2860.68 563.204V563.448C2860.68 604.83 2883.5 631.075 2919.27 631.075ZM2919.27 622.408C2889.24 622.408 2870.32 599.459 2870.32 563.448V563.204C2870.32 527.071 2889.24 504.122 2919.27 504.122C2949.18 504.122 2968.22 527.193 2968.22 563.204V563.448C2968.22 599.337 2949.18 622.408 2919.27 622.408Z" fill="black"/>
<path d="M3034.38 629H3045.61L3081.99 510.104H3082.84L3119.34 629H3130.45L3168.66 497.53H3159.14L3125.2 617.77H3124.35L3087.85 497.53H3077.11L3040.61 617.77H3039.75L3006.18 497.53H2996.66L3034.38 629Z" fill="black"/>
<g filter="url(#filter0_d)">
<rect x="1142" y="365" width="350" height="350" rx="84" fill="white"/>
</g>
<path d="M1413.94 520.176L1336.82 443.064" stroke="#00F3C8" stroke-width="14" stroke-linecap="round" stroke-linejoin="round"/>
<path d="M1401.09 507.326L1281.12 627.287C1274.31 634.109 1265.06 637.941 1255.42 637.941C1245.78 637.941 1236.53 634.109 1229.71 627.287V627.287C1222.89 620.472 1219.06 611.224 1219.06 601.581C1219.06 591.938 1222.89 582.691 1229.71 575.875L1349.67 455.914" stroke="#00F3C8" stroke-width="14" stroke-linecap="round" stroke-linejoin="round"/>
<path d="M1259.36 546.232H1362.18" stroke="#00F3C8" stroke-width="14" stroke-linecap="round" stroke-linejoin="round"/>
<defs>
<filter id="filter0_d" x="1136" y="361" width="362" height="362" filterUnits="userSpaceOnUse" color-interpolation-filters="sRGB">
<feFlood flood-opacity="0" result="BackgroundImageFix"/>
<feColorMatrix in="SourceAlpha" type="matrix" values="0 0 0 0 0 0 0 0 0 0 0 0 0 0 0 0 0 0 127 0"/>
<feOffset dy="2"/>
<feGaussianBlur stdDeviation="3"/>
<feColorMatrix type="matrix" values="0 0 0 0 0 0 0 0 0 0 0 0 0 0 0 0 0 0 0.28 0"/>
<feBlend mode="normal" in2="BackgroundImageFix" result="effect1_dropShadow"/>
<feBlend mode="normal" in="SourceGraphic" in2="effect1_dropShadow" result="shape"/>
</filter>
</defs>
</svg>
