<svg width="4320" height="1080" viewBox="0 0 4320 1080" fill="none" xmlns="http://www.w3.org/2000/svg">
<rect width="4320" height="1080" fill="#1AF6CF"/>
<rect x="1115" y="365" width="350" height="350" rx="100" fill="white"/>
<path d="M1215 645.82H1365.59V615H1215V645.82Z" fill="#1AF7CF"/>
<path d="M1590 451.434V635.389H1662.1C1718.84 635.389 1745.25 600.08 1745.25 542.67C1745.25 485.934 1719.51 451.434 1662.1 451.434H1590ZM1634.34 486.473H1655.09C1686.36 486.473 1699.83 505.879 1699.83 543.748C1699.83 581.482 1686.49 600.215 1655.09 600.215H1634.34V486.473Z" fill="black"/>
<path d="M1820.18 635.389V525.016H1821.93L1895.92 635.389H1930.69V451.434H1889.45V560.729H1887.7L1813.98 451.434H1778.94V635.389H1820.18Z" fill="black"/>
<path d="M2001.04 635.389L2013.03 592.938H2070.04L2082.03 635.389H2129.06L2070.04 451.434H2016.13L1956.83 635.389H2001.04ZM2042.81 491.055L2062.08 560.998H2021.25L2040.79 491.055H2042.81Z" fill="black"/>
<path d="M2319.22 496.176H2308.97L2276.23 621.508H2275.55L2235.53 496.176H2225.69L2185.93 621.508H2185.26L2152.51 496.176H2141.87L2180.54 635.389H2190.38L2230.41 509.787H2230.95L2271.11 635.389H2280.94L2319.22 496.176Z" fill="black"/>
<path d="M2401.42 493.75C2369.62 493.75 2344.96 515.043 2344.96 555.068V577.035C2344.96 617.061 2369.89 637.814 2401.42 637.814C2432.69 637.814 2458.03 617.195 2458.03 577.035V555.068C2458.03 515.312 2432.55 493.75 2401.42 493.75ZM2401.42 502.645C2427.84 502.645 2448.32 521.377 2448.32 556.416V575.688C2448.32 611.266 2428.11 628.92 2401.56 628.92C2374.47 628.92 2354.66 610.861 2354.66 575.688V556.416C2354.66 521.107 2374.88 502.645 2401.42 502.645Z" fill="black"/>
<path d="M2503.31 635.389H2512.74V549.678C2512.74 517.738 2532.28 503.049 2553.84 503.049C2560.45 503.049 2564.89 503.992 2566.51 504.396V495.098C2564.76 494.828 2560.72 494.02 2554.65 494.02C2528.51 494.02 2515.97 511.27 2513.41 523.938H2512.74V496.176H2503.31V635.389Z" fill="black"/>
<path d="M2609.23 577.844L2629.31 559.65L2688.88 635.389H2701.01L2636.46 553.316L2697.23 496.176H2684.84L2609.77 566.254H2609.23V442H2599.66V635.389H2609.23V577.844Z" fill="black"/>
<path d="M2746.29 635.389H2755.86V504.531H2795.75V496.176H2755.86V477.982C2755.86 458.846 2763.13 451.838 2782.41 451.838C2787.66 451.838 2794.54 452.242 2797.5 452.781V444.426C2794.13 443.617 2787.12 443.078 2782 443.078C2757.07 443.078 2746.29 453.59 2746.29 477.713V496.176H2721.76V504.531H2746.29V635.389Z" fill="black"/>
<path d="M2832.27 635.389H2841.84V442H2832.27V635.389Z" fill="black"/>
<path d="M2945.61 493.75C2913.8 493.75 2889.14 515.043 2889.14 555.068V577.035C2889.14 617.061 2914.07 637.814 2945.61 637.814C2976.87 637.814 3002.21 617.195 3002.21 577.035V555.068C3002.21 515.312 2976.74 493.75 2945.61 493.75ZM2945.61 502.645C2972.02 502.645 2992.51 521.377 2992.51 556.416V575.688C2992.51 611.266 2972.29 628.92 2945.74 628.92C2918.65 628.92 2898.84 610.861 2898.84 575.688V556.416C2898.84 521.107 2919.06 502.645 2945.61 502.645Z" fill="black"/>
<path d="M3205.71 496.176H3195.46L3162.71 621.508H3162.04L3122.02 496.176H3112.18L3072.42 621.508H3071.75L3039 496.176H3028.35L3067.03 635.389H3076.87L3116.89 509.787H3117.43L3157.59 635.389H3167.43L3205.71 496.176Z" fill="black"/>
</svg>
