<svg width="4320" height="1080" fill="none" xmlns="http://www.w3.org/2000/svg"><path fill="url(#a)" d="M0 0h4320v1080H0z"/><path d="M1604.62 670.138v-24.903h-126.7v24.903h126.7ZM1862.68 631.075c30.76 0 49.68-21.484 49.68-57.129v-23.803c0-35.523-18.92-57.129-49.68-57.129-19.29 0-32.96 8.667-37.96 24.17h-2.44v-73.487h-29.42V629h28.93v-21.973h2.44c5.49 15.625 19.04 24.048 38.45 24.048Zm-10.13-24.78c-19.04 0-31.01-13.062-31.01-34.058v-20.874c0-21.118 11.97-34.179 31.01-34.179s31.01 13.183 31.01 34.179v20.874c0 20.996-11.97 34.058-31.01 34.058ZM2062.63 495.333h-28.44v77.881c0 20.264-12.45 33.447-31.49 33.447-18.31 0-27.1-10.132-27.1-31.616v-79.712h-28.45v86.548c0 32.471 15.75 49.805 44.8 49.805 19.66 0 34.43-9.156 41.26-25.513h1.96V629h27.46V495.333ZM2161.51 465.67c12.21 0 20.75-7.935 20.75-19.409 0-11.475-8.54-19.409-20.75-19.409-12.09 0-20.63 7.934-20.63 19.409 0 11.474 8.54 19.409 20.63 19.409ZM2218.27 629v-22.705h-41.99V495.333h-70.31v22.705h42.6v88.257h-44.07V629h113.77ZM2372.81 629v-22.705h-41.62V443.697h-70.68v22.705h42.36v139.893h-43.83V629h113.77ZM2456.19 631.075c19.41 0 32.96-8.423 38.57-24.048h2.44V629h28.81V443.697h-29.3v73.487h-2.44c-5-15.503-18.8-24.17-38.08-24.17-30.64 0-49.69 21.606-49.69 57.129v23.803c0 35.645 19.05 57.129 49.69 57.129Zm10.25-24.78c-19.16 0-31-13.062-31-34.058v-20.874c0-20.996 11.84-34.179 31-34.179 19.04 0 30.89 13.061 30.89 34.179v20.874c0 20.996-11.85 34.058-30.89 34.058Z" fill="#fff" fill-opacity=".9"/><path d="M1604.62 670.138v-24.903h-126.7v24.903h126.7ZM1824.6 457.979v38.209h-35.16v22.949h35.16v68.603c0 29.663 14.52 41.626 49.68 41.626 4.03 0 26.49-.366 28.68-.732v-22.705c-2.31.244-21.6.366-26.48.366-15.14 0-23.56-6.592-23.56-18.433v-68.725h51.14v-22.949h-51.63v-38.209h-27.83ZM2036.63 592.745c-2.81 9.888-14.16 16.358-28.93 16.358-19.41 0-31.98-13.184-31.98-33.57v-6.47h88.13v-16.235c0-37.109-21.85-60.181-57-60.181-35.53 0-59.09 23.194-59.09 58.228v20.874c0 38.086 21.98 59.937 60.06 59.937 29.91 0 52.62-15.992 55.79-38.941h-26.98Zm-30.27-77.637c18.68 0 29.91 13.184 29.91 34.913h-60.55c0-21.851 11.47-34.913 30.64-34.913ZM2107.43 533.175c0 19.897 12.45 32.593 37.11 38.086l20.02 4.394c15.26 3.296 20.88 7.813 20.88 16.602 0 10.376-9.77 17.212-25.27 17.212-15.14 0-25.27-5.982-27.71-16.48h-28.2c1.95 24.17 22.7 38.697 55.42 38.697 33.57 0 54.93-16.724 54.93-42.725 0-20.02-11.84-31.372-38.57-37.109l-19.9-4.273c-14.53-3.174-20.63-8.057-20.63-16.601 0-10.01 9.4-16.602 23.68-16.602 13.79 0 23.44 6.226 25.39 16.235h26.86c-1.83-24.048-21.24-38.208-51.88-38.208-31.62 0-52.13 15.869-52.13 40.772ZM2288.22 457.979v38.209h-35.16v22.949h35.16v68.603c0 29.663 14.53 41.626 49.68 41.626 4.03 0 26.49-.366 28.69-.732v-22.705c-2.32.244-21.61.366-26.49.366-15.14 0-23.56-6.592-23.56-18.433v-68.725h51.15v-22.949h-51.64v-38.209h-27.83Z" fill="#fff" fill-opacity=".2"/><path d="M1604.62 670.138v-24.903h-126.7v24.903h126.7ZM1908.95 539.889c-3.18-30.64-23.32-47.608-56.03-47.608-38.21 0-59.82 22.339-59.82 62.012v15.381c0 39.795 21.61 62.012 59.82 62.012 32.59 0 52.97-16.846 56.03-46.753h-27.84c-2.44 14.77-12.81 22.827-28.44 22.827-20.02 0-31-14.405-31-40.65v-10.254c0-26.245 10.98-40.649 31-40.649 15.5 0 26.12 8.423 28.44 23.682h27.84ZM2004.89 631.686c36.87 0 60.18-22.95 60.18-59.327v-20.385c0-36.377-23.31-59.327-60.18-59.327-36.86 0-60.18 22.95-60.18 59.327v20.385c0 36.377 23.32 59.327 60.18 59.327Zm0-115.479c19.78 0 32.11 14.282 32.11 37.354v17.211c0 23.072-12.33 37.354-32.11 37.354-19.77 0-32.1-14.282-32.1-37.354v-17.211c0-23.072 12.33-37.354 32.1-37.354ZM2225.72 527.438c0-22.706-9.16-34.791-26.49-34.791-13.06 0-22.95 8.301-26 21.973h-3.05c-2.81-14.038-11.36-21.973-23.81-21.973-12.81 0-22.21 8.179-25.27 22.706h-3.05v-20.02h-24.9V629h24.41v-91.187c0-12.573 6.11-20.507 15.63-20.507 9.15 0 14.28 6.836 14.28 19.165V629h24.29v-91.187c0-12.573 5.86-20.507 15.26-20.507 9.04 0 14.28 6.958 14.28 19.165V629h24.42V527.438ZM2326.3 493.136c-19.28 0-32.83 8.545-38.45 24.17h-2.44v-21.973h-28.81V673.8h29.3v-66.651h2.44c5.01 15.381 18.68 24.17 37.96 24.17 30.77 0 49.81-21.606 49.81-57.251v-23.803c0-35.523-19.04-57.129-49.81-57.129Zm-10.13 24.902c19.17 0 31.01 13.062 31.01 34.058v20.996c0 20.874-11.84 34.057-31.01 34.057-19.04 0-30.88-13.061-30.88-34.057v-20.996c0-20.996 11.84-34.058 30.88-34.058ZM2470.59 465.67c12.21 0 20.75-7.935 20.75-19.409 0-11.475-8.54-19.409-20.75-19.409-12.08 0-20.63 7.934-20.63 19.409 0 11.474 8.55 19.409 20.63 19.409ZM2527.35 629v-22.705h-41.99V495.333h-70.31v22.705h42.6v88.257h-44.07V629h113.77ZM2681.9 629v-22.705h-41.63V443.697h-70.68v22.705h42.36v139.893h-43.82V629h113.77ZM2809.34 592.745c-2.81 9.888-14.16 16.358-28.93 16.358-19.41 0-31.99-13.184-31.99-33.57v-6.47h88.14v-16.235c0-37.109-21.85-60.181-57.01-60.181-35.52 0-59.08 23.194-59.08 58.228v20.874c0 38.086 21.97 59.937 60.06 59.937 29.91 0 52.61-15.992 55.78-38.941h-26.97Zm-30.28-77.637c18.68 0 29.91 13.184 29.91 34.913h-60.55c0-21.851 11.48-34.913 30.64-34.913Z" fill="#fff" fill-opacity=".2"/><path d="M1604.62 670.138v-24.903h-126.7v24.903h126.7ZM1798.35 533.175c0 19.897 12.45 32.593 37.11 38.086l20.02 4.394c15.26 3.296 20.87 7.813 20.87 16.602 0 10.376-9.76 17.212-25.27 17.212-15.13 0-25.26-5.982-27.7-16.48h-28.2c1.95 24.17 22.7 38.697 55.42 38.697 33.57 0 54.93-16.724 54.93-42.725 0-20.02-11.84-31.372-38.58-37.109l-19.89-4.273c-14.53-3.174-20.63-8.057-20.63-16.601 0-10.01 9.4-16.602 23.68-16.602 13.79 0 23.44 6.226 25.39 16.235h26.85c-1.83-24.048-21.24-38.208-51.88-38.208-31.61 0-52.12 15.869-52.12 40.772ZM1992.56 631.075c19.41 0 32.96-8.423 38.58-24.048h2.44V629h28.81V443.697h-29.3v73.487h-2.44c-5-15.503-18.8-24.17-38.09-24.17-30.64 0-49.68 21.606-49.68 57.129v23.803c0 35.645 19.04 57.129 49.68 57.129Zm10.26-24.78c-19.17 0-31.01-13.062-31.01-34.058v-20.874c0-20.996 11.84-34.179 31.01-34.179 19.04 0 30.88 13.061 30.88 34.179v20.874c0 20.996-11.84 34.058-30.88 34.058ZM2140.15 551.607h-1.83v-107.91H2110V629h28.32v-46.143l15.01-14.892 41.5 61.035h33.09l-53.84-79.224 50.42-54.443h-33.08l-51.27 56.274ZM2313.98 537.691c13.67 0 24.9-11.474 24.9-25.512s-11.23-25.391-24.9-25.391c-13.68 0-24.91 11.353-24.91 25.391 0 14.038 11.23 25.512 24.91 25.512Zm0 93.018c13.67 0 24.9-11.597 24.9-25.513 0-14.038-11.23-25.39-24.9-25.39-13.68 0-24.91 11.352-24.91 25.39 0 13.916 11.23 25.513 24.91 25.513ZM2464.85 569.43c0-30.884 16.24-47.73 47.12-47.73 7.33 0 16.12 1.465 22.1 3.784v-30.883c-4.64-1.831-11.6-2.808-19.17-2.808-25.39 0-40.28 11.963-45.77 37.72h-4.15v-34.18h-56.03v21.24h28.56v91.187h-26V629h93.14v-21.24h-39.8v-38.33ZM2680.8 495.333h-28.45v77.881c0 20.264-12.45 33.447-31.49 33.447-18.31 0-27.1-10.132-27.1-31.616v-79.712h-28.44v86.548c0 32.471 15.75 49.805 44.8 49.805 19.65 0 34.42-9.156 41.26-25.513h1.95V629h27.47V495.333ZM2719.86 629h28.44v-77.881c0-20.264 12.45-33.569 31.5-33.569 18.31 0 27.1 10.254 27.1 31.738V629h28.44v-86.67c0-32.349-15.75-49.683-44.8-49.683-19.66 0-34.43 9.156-41.26 25.513h-1.95v-22.827h-27.47V629Z" fill="#fff" fill-opacity=".2"/><path d="M1604.62 670.138v-24.903h-126.7v24.903h126.7ZM1852.43 465.67c12.2 0 20.75-7.935 20.75-19.409 0-11.475-8.55-19.409-20.75-19.409-12.09 0-20.63 7.934-20.63 19.409 0 11.474 8.54 19.409 20.63 19.409ZM1909.19 629v-22.705h-41.99V495.333h-70.31v22.705h42.6v88.257h-44.07V629h113.77ZM1947.15 629h28.45v-77.881c0-20.264 12.45-33.569 31.49-33.569 18.31 0 27.1 10.254 27.1 31.738V629h28.44v-86.67c0-32.349-15.74-49.683-44.8-49.683-19.65 0-34.42 9.156-41.26 25.513h-1.95v-22.827h-27.47V629ZM2107.43 533.175c0 19.897 12.45 32.593 37.11 38.086l20.02 4.394c15.26 3.296 20.88 7.813 20.88 16.602 0 10.376-9.77 17.212-25.27 17.212-15.14 0-25.27-5.982-27.71-16.48h-28.2c1.95 24.17 22.7 38.697 55.42 38.697 33.57 0 54.93-16.724 54.93-42.725 0-20.02-11.84-31.372-38.57-37.109l-19.9-4.273c-14.53-3.174-20.63-8.057-20.63-16.601 0-10.01 9.4-16.602 23.68-16.602 13.79 0 23.44 6.226 25.39 16.235h26.86c-1.83-24.048-21.24-38.208-51.88-38.208-31.62 0-52.13 15.869-52.13 40.772ZM2288.22 457.979v38.209h-35.16v22.949h35.16v68.603c0 29.663 14.53 41.626 49.68 41.626 4.03 0 26.49-.366 28.69-.732v-22.705c-2.32.244-21.61.366-26.49.366-15.14 0-23.56-6.592-23.56-18.433v-68.725h51.15v-22.949h-51.64v-38.209h-27.83ZM2452.28 631.197c18.19 0 32.47-7.568 38.94-20.874h2.57V629h26.97v-91.064c0-28.565-18.8-44.8-51.88-44.8-30.03 0-51.63 15.259-54.07 38.33h27.83c2.93-9.766 12.45-15.381 25.51-15.381 15.63 0 24.54 7.812 24.54 21.606v11.231l-33.45 1.953c-31.98 1.953-49.32 16.113-49.32 40.039 0 24.17 16.97 40.283 42.36 40.283Zm9.16-23.193c-14.29 0-23.32-7.202-23.32-18.799 0-11.841 8.67-18.555 25.39-19.531l29.18-1.587v12.207c0 16.113-13.19 27.71-31.25 27.71ZM2681.9 629v-22.705h-41.63V443.697h-70.68v22.705h42.36v139.893h-43.82V629h113.77ZM2836.44 629v-22.705h-41.63V443.697h-70.68v22.705h42.36v139.893h-43.82V629h113.77Z" fill="#fff" fill-opacity=".2"/><path d="M1604.62 670.138v-24.903h-126.7v24.903h126.7ZM1908.95 539.889c-3.18-30.64-23.32-47.608-56.03-47.608-38.21 0-59.82 22.339-59.82 62.012v15.381c0 39.795 21.61 62.012 59.82 62.012 32.59 0 52.97-16.846 56.03-46.753h-27.84c-2.44 14.77-12.81 22.827-28.44 22.827-20.02 0-31-14.405-31-40.65v-10.254c0-26.245 10.98-40.649 31-40.649 15.5 0 26.12 8.423 28.44 23.682h27.84ZM2004.89 631.686c36.87 0 60.18-22.95 60.18-59.327v-20.385c0-36.377-23.31-59.327-60.18-59.327-36.86 0-60.18 22.95-60.18 59.327v20.385c0 36.377 23.32 59.327 60.18 59.327Zm0-115.479c19.78 0 32.11 14.282 32.11 37.354v17.211c0 23.072-12.33 37.354-32.11 37.354-19.77 0-32.1-14.282-32.1-37.354v-17.211c0-23.072 12.33-37.354 32.1-37.354ZM2225.72 527.438c0-22.706-9.16-34.791-26.49-34.791-13.06 0-22.95 8.301-26 21.973h-3.05c-2.81-14.038-11.36-21.973-23.81-21.973-12.81 0-22.21 8.179-25.27 22.706h-3.05v-20.02h-24.9V629h24.41v-91.187c0-12.573 6.11-20.507 15.63-20.507 9.15 0 14.28 6.836 14.28 19.165V629h24.29v-91.187c0-12.573 5.86-20.507 15.26-20.507 9.04 0 14.28 6.958 14.28 19.165V629h24.42V527.438ZM2380.26 527.438c0-22.706-9.16-34.791-26.49-34.791-13.06 0-22.95 8.301-26 21.973h-3.05c-2.81-14.038-11.35-21.973-23.81-21.973-12.81 0-22.21 8.179-25.26 22.706h-3.06v-20.02h-24.9V629h24.42v-91.187c0-12.573 6.1-20.507 15.62-20.507 9.16 0 14.28 6.836 14.28 19.165V629h24.29v-91.187c0-12.573 5.86-20.507 15.26-20.507 9.04 0 14.29 6.958 14.29 19.165V629h24.41V527.438ZM2452.28 631.197c18.19 0 32.47-7.568 38.94-20.874h2.57V629h26.97v-91.064c0-28.565-18.8-44.8-51.88-44.8-30.03 0-51.63 15.259-54.07 38.33h27.83c2.93-9.766 12.45-15.381 25.51-15.381 15.63 0 24.54 7.812 24.54 21.606v11.231l-33.45 1.953c-31.98 1.953-49.32 16.113-49.32 40.039 0 24.17 16.97 40.283 42.36 40.283Zm9.16-23.193c-14.29 0-23.32-7.202-23.32-18.799 0-11.841 8.67-18.555 25.39-19.531l29.18-1.587v12.207c0 16.113-13.19 27.71-31.25 27.71ZM2565.32 629h28.44v-77.881c0-20.264 12.45-33.569 31.49-33.569 18.32 0 27.1 10.254 27.1 31.738V629h28.45v-86.67c0-32.349-15.75-49.683-44.8-49.683-19.66 0-34.43 9.156-41.26 25.513h-1.96v-22.827h-27.46V629ZM2765.27 631.075c19.41 0 32.96-8.423 38.57-24.048h2.45V629h28.8V443.697h-29.29v73.487h-2.44c-5.01-15.503-18.8-24.17-38.09-24.17-30.64 0-49.68 21.606-49.68 57.129v23.803c0 35.645 19.04 57.129 49.68 57.129Zm10.25-24.78c-19.16 0-31-13.062-31-34.058v-20.874c0-20.996 11.84-34.179 31-34.179 19.05 0 30.89 13.061 30.89 34.179v20.874c0 20.996-11.84 34.058-30.89 34.058Z" fill="#fff" fill-opacity=".2"/><path d="M1604.62 670.138v-24.903h-126.7v24.903h126.7ZM1846.57 679.293c37.96 0 61.03-19.043 61.03-50.415V495.333h-27.95v21.851h-2.44c-4.88-14.893-19.78-24.17-39.19-24.17-31.73 0-51.14 21.606-51.14 57.129v21.85c0 35.278 19.16 57.129 50.04 57.129 19.66 0 35.04-9.399 39.8-24.17h2.44v24.17c0 18.677-11.35 28.687-32.23 28.687-15.86 0-27.71-6.226-30.15-15.87h-27.83c2.44 23.072 24.42 37.354 57.62 37.354Zm-30.76-109.131v-18.799c0-20.874 12.33-34.179 31.61-34.179 19.17 0 31.5 13.305 31.5 34.179v18.799c0 20.874-12.33 34.18-31.5 34.18-19.28 0-31.61-13.306-31.61-34.18ZM2006.97 465.67c12.21 0 20.75-7.935 20.75-19.409 0-11.475-8.54-19.409-20.75-19.409-12.09 0-20.63 7.934-20.63 19.409 0 11.474 8.54 19.409 20.63 19.409ZM2063.73 629v-22.705h-41.99V495.333h-70.31v22.705h42.6v88.257h-44.07V629h113.77ZM2133.68 457.979v38.209h-35.16v22.949h35.16v68.603c0 29.663 14.52 41.626 49.68 41.626 4.03 0 26.49-.366 28.69-.732v-22.705c-2.32.244-21.61.366-26.49.366-15.14 0-23.56-6.592-23.56-18.433v-68.725h51.15v-22.949h-51.64v-38.209h-27.83ZM2255.99 629h28.32v-77.515c0-20.263 12.7-33.691 31.98-33.691 18.44 0 27.35 10.376 27.35 31.738V629h28.44v-86.426c0-32.104-15.87-49.682-45.04-49.682-19.78 0-34.92 9.277-41.63 25.512h-1.83v-74.707h-27.59V629ZM2526.26 495.333h-28.45v77.881c0 20.264-12.45 33.447-31.49 33.447-18.31 0-27.1-10.132-27.1-31.616v-79.712h-28.44v86.548c0 32.471 15.74 49.805 44.8 49.805 19.65 0 34.42-9.156 41.26-25.513h1.95V629h27.47V495.333ZM2635.39 631.075c30.76 0 49.68-21.484 49.68-57.129v-23.803c0-35.523-18.92-57.129-49.68-57.129-19.29 0-32.96 8.667-37.97 24.17h-2.44v-73.487h-29.42V629h28.93v-21.973h2.44c5.5 15.625 19.05 24.048 38.46 24.048Zm-10.14-24.78c-19.04 0-31-13.062-31-34.058v-20.874c0-21.118 11.96-34.179 31-34.179 19.05 0 31.01 13.183 31.01 34.179v20.874c0 20.996-11.96 34.058-31.01 34.058Z" fill="#fff" fill-opacity=".2"/><path d="M1604.62 670.138v-24.903h-126.7v24.903h126.7ZM1908.95 539.889c-3.18-30.64-23.32-47.608-56.03-47.608-38.21 0-59.82 22.339-59.82 62.012v15.381c0 39.795 21.61 62.012 59.82 62.012 32.59 0 52.97-16.846 56.03-46.753h-27.84c-2.44 14.77-12.81 22.827-28.44 22.827-20.02 0-31-14.405-31-40.65v-10.254c0-26.245 10.98-40.649 31-40.649 15.5 0 26.12 8.423 28.44 23.682h27.84ZM2063.73 629v-22.705h-41.62V443.697h-70.68v22.705h42.36v139.893h-43.83V629h113.77ZM2159.43 631.686c36.87 0 60.19-22.95 60.19-59.327v-20.385c0-36.377-23.32-59.327-60.19-59.327-36.86 0-60.18 22.95-60.18 59.327v20.385c0 36.377 23.32 59.327 60.18 59.327Zm0-115.479c19.78 0 32.11 14.282 32.11 37.354v17.211c0 23.072-12.33 37.354-32.11 37.354-19.77 0-32.1-14.282-32.1-37.354v-17.211c0-23.072 12.33-37.354 32.1-37.354ZM2371.71 495.333h-28.44v77.881c0 20.264-12.45 33.447-31.49 33.447-18.31 0-27.1-10.132-27.1-31.616v-79.712h-28.44v86.548c0 32.471 15.74 49.805 44.8 49.805 19.65 0 34.42-9.156 41.26-25.513h1.95V629h27.46V495.333ZM2456.19 631.075c19.41 0 32.96-8.423 38.57-24.048h2.44V629h28.81V443.697h-29.3v73.487h-2.44c-5-15.503-18.8-24.17-38.08-24.17-30.64 0-49.69 21.606-49.69 57.129v23.803c0 35.645 19.05 57.129 49.69 57.129Zm10.25-24.78c-19.16 0-31-13.062-31-34.058v-20.874c0-20.996 11.84-34.179 31-34.179 19.04 0 30.89 13.061 30.89 34.179v20.874c0 20.996-11.85 34.058-30.89 34.058Z" fill="#fff" fill-opacity=".2"/><defs><linearGradient id="a" x1="4320" y1="540" x2="0" y2="540" gradientUnits="userSpaceOnUse"><stop stop-color="#0060FF"/><stop offset="1" stop-color="#0096FF"/></linearGradient></defs></svg>
