<svg width="4320" height="1080" viewBox="0 0 4320 1080" fill="none" xmlns="http://www.w3.org/2000/svg">
  <rect width="4320" height="1080" fill="url(#paint0_linear)" />
  <path fill-rule="evenodd" clip-rule="evenodd"
    d="M2160 269C2082.68 269 2020 331.68 2020 409H1900C1900 265.406 2016.41 149 2160 149C2303.59 149 2420 265.406 2420 409C2420 552.594 2303.59 669 2160 669V549C2237.32 549 2300 486.32 2300 409C2300 331.68 2237.32 269 2160 269Z"
    fill="white" />
  <path
    d="M1435.7 900.119L1442 875.192H1477.34L1483.46 900.119H1521.9L1483.73 775.483H1438.44L1400 900.119H1435.7ZM1460.81 805.889L1471.4 849.625H1448.12L1458.99 805.889H1460.81Z"
    fill="white" />
  <path d="M1620.69 870.444H1573.76V775.483H1537.69V900.119H1620.69V870.444Z" fill="white" />
  <path
    d="M1747.61 844.421V831.546C1747.61 796.393 1727.16 773.383 1689.72 773.383C1652.47 773.383 1631.74 796.119 1631.74 831.546V844.421C1631.74 879.483 1652.47 902.311 1689.72 902.311C1727.16 902.311 1747.61 879.483 1747.61 844.421ZM1710.72 831.09V844.604C1710.72 863.596 1702.6 873.457 1689.72 873.457C1676.85 873.457 1668.72 863.596 1668.72 844.604V831.09C1668.72 812.189 1676.85 802.145 1689.72 802.145C1702.6 802.145 1710.72 812.189 1710.72 831.09Z"
    fill="white" />
  <path
    d="M1815.18 775.757V900.119H1850.52C1888.59 900.119 1905.76 877.201 1905.76 837.938C1905.76 798.675 1888.23 775.757 1850.52 775.757H1815.18ZM1825.04 784.796H1850.33C1881.29 784.796 1895.62 804.336 1895.62 837.938C1895.62 871.631 1881.56 891.08 1850.33 891.08H1825.04V784.796Z"
    fill="white" />
  <path
    d="M1971.41 901.671C1994.42 901.671 2005.28 887.153 2006.47 877.109H1996.25C1994.97 884.414 1986.66 892.906 1971.41 892.906C1953.24 892.906 1942.56 880.123 1942.56 859.761V854.465H2007.84V846.704C2007.84 819.128 1992.32 803.606 1970.31 803.606C1948.22 803.606 1932.79 819.128 1932.79 846.704V859.396C1932.79 885.784 1947.12 901.671 1971.41 901.671ZM1942.56 846.612V845.517C1942.56 824.79 1953.6 812.372 1970.31 812.372C1987.02 812.372 1998.07 824.79 1998.07 845.517V846.612H1942.56Z"
    fill="white" />
  <path
    d="M2059.61 900.119H2069.47L2104.54 805.158H2094.13L2064.82 888.979H2064.27L2035.78 805.158H2025.01L2059.61 900.119Z"
    fill="white" />
  <path
    d="M2159.69 901.671C2182.7 901.671 2193.56 887.153 2194.75 877.109H2184.52C2183.25 884.414 2174.94 892.906 2159.69 892.906C2141.52 892.906 2130.83 880.123 2130.83 859.761V854.465H2196.12V846.704C2196.12 819.128 2180.6 803.606 2158.59 803.606C2136.5 803.606 2121.06 819.128 2121.06 846.704V859.396C2121.06 885.784 2135.4 901.671 2159.69 901.671ZM2130.83 846.612V845.517C2130.83 824.79 2141.88 812.372 2158.59 812.372C2175.3 812.372 2186.35 824.79 2186.35 845.517V846.612H2130.83Z"
    fill="white" />
  <path d="M2226.8 900.119H2236.57V769H2226.8V900.119Z" fill="white" />
  <path
    d="M2306.88 803.606C2284.6 803.606 2267.61 818.672 2267.61 845.243V860.217C2267.61 887.245 2284.6 901.671 2306.88 901.671C2328.88 901.671 2346.14 887.153 2346.14 860.217V845.243C2346.14 818.398 2328.79 803.606 2306.88 803.606ZM2306.88 812.372C2324.04 812.372 2336.37 824.972 2336.37 846.43V859.122C2336.37 880.944 2324.32 892.906 2306.97 892.906C2289.35 892.906 2277.38 880.853 2277.38 859.122V846.43C2277.38 824.79 2289.71 812.372 2306.88 812.372Z"
    fill="white" />
  <path
    d="M2415.81 901.671C2436.44 901.671 2452.42 887.519 2452.42 861.587V843.508C2452.42 819.037 2437.63 803.606 2416.26 803.606C2398.09 803.606 2388.51 814.837 2385.86 822.598H2385.31V805.158H2376V930.981H2385.68V883.318H2386.22C2389.6 892.084 2398.92 901.671 2415.81 901.671ZM2414.8 892.906C2397.36 892.906 2385.68 879.575 2385.68 861.678V844.421C2385.68 826.524 2396.27 812.372 2414.62 812.372C2431.15 812.372 2442.65 824.424 2442.65 845.882V859.304C2442.65 881.766 2430.51 892.906 2414.8 892.906Z"
    fill="white" />
  <path
    d="M2516.52 901.671C2539.53 901.671 2550.4 887.153 2551.58 877.109H2541.36C2540.08 884.414 2531.77 892.906 2516.52 892.906C2498.35 892.906 2487.67 880.123 2487.67 859.761V854.465H2552.95V846.704C2552.95 819.128 2537.43 803.606 2515.43 803.606C2493.33 803.606 2477.9 819.128 2477.9 846.704V859.396C2477.9 885.784 2492.23 901.671 2516.52 901.671ZM2487.67 846.612V845.517C2487.67 824.79 2498.72 812.372 2515.43 812.372C2532.14 812.372 2543.18 824.79 2543.18 845.517V846.612H2487.67Z"
    fill="white" />
  <path
    d="M2583.27 900.119H2593.04V841.042C2593.04 822.963 2604.36 812.828 2619.97 812.828C2623.81 812.828 2626.82 813.193 2628.01 813.467V804.245C2626.55 804.062 2624.17 803.697 2621.07 803.697C2603.45 803.697 2595.59 814.654 2593.59 822.233H2593.04V805.158H2583.27V900.119Z"
    fill="white" />
  <path
    d="M2699.5 827.438C2699.5 801.597 2712.01 781.966 2737.03 781.966C2757.3 781.966 2769.9 796.21 2770.82 810.454H2780.59V810.271C2779.58 791.097 2763.24 773.018 2737.03 773.018C2705.53 773.018 2689.64 796.119 2689.64 827.803V848.438C2689.64 880.396 2704.89 902.858 2737.31 902.858C2762.6 902.858 2780.13 886.697 2781.13 866.7V866.518H2771.36C2770.45 882.04 2757.03 893.91 2737.31 893.91C2711.56 893.91 2699.5 874.553 2699.5 848.895V827.438Z"
    fill="white" />
  <path d="M2883.4 891.08H2822.5V775.757H2812.64V900.119H2883.4V891.08Z" fill="white" />
  <path d="M2919.28 900.119V775.757H2909.42V900.119H2919.28Z" fill="white" />
  <defs>
    <linearGradient id="paint0_linear" x1="4320" y1="540" x2="-2.83401e-05" y2="540" gradientUnits="userSpaceOnUse">
      <stop stop-color="#00FFC2" />
      <stop offset="1" stop-color="#0099FF" />
    </linearGradient>
  </defs>
</svg>
