<svg width="4320" height="1080" viewBox="0 0 4320 1080" fill="none" xmlns="http://www.w3.org/2000/svg">
  <rect width="4320" height="1080" fill="url(#paint0_linear)" />
  <path d="M1604.62 670.138V645.235H1477.92V670.138H1604.62Z" fill="white" fill-opacity="0.9" />
  <path
    d="M1862.68 631.075C1893.44 631.075 1912.36 609.591 1912.36 573.946V550.143C1912.36 514.62 1893.44 493.014 1862.68 493.014C1843.39 493.014 1829.72 501.681 1824.72 517.184H1822.28V443.697H1792.86V629H1821.79V607.027H1824.23C1829.72 622.652 1843.27 631.075 1862.68 631.075ZM1852.55 606.295C1833.51 606.295 1821.54 593.233 1821.54 572.237V551.363C1821.54 530.245 1833.51 517.184 1852.55 517.184C1871.59 517.184 1883.56 530.367 1883.56 551.363V572.237C1883.56 593.233 1871.59 606.295 1852.55 606.295Z"
    fill="white" fill-opacity="0.9" />
  <path
    d="M2062.63 495.333H2034.19V573.214C2034.19 593.478 2021.74 606.661 2002.7 606.661C1984.39 606.661 1975.6 596.529 1975.6 575.045V495.333H1947.15V581.881C1947.15 614.352 1962.9 631.686 1991.95 631.686C2011.61 631.686 2026.38 622.53 2033.21 606.173H2035.17V629H2062.63V495.333Z"
    fill="white" fill-opacity="0.9" />
  <path
    d="M2161.51 465.67C2173.72 465.67 2182.26 457.735 2182.26 446.261C2182.26 434.786 2173.72 426.852 2161.51 426.852C2149.42 426.852 2140.88 434.786 2140.88 446.261C2140.88 457.735 2149.42 465.67 2161.51 465.67ZM2218.27 629V606.295H2176.28V495.333H2105.97V518.038H2148.57V606.295H2104.5V629H2218.27Z"
    fill="white" fill-opacity="0.9" />
  <path d="M2372.81 629V606.295H2331.19V443.697H2260.51V466.402H2302.87V606.295H2259.04V629H2372.81Z" fill="white"
    fill-opacity="0.9" />
  <path
    d="M2456.19 631.075C2475.6 631.075 2489.15 622.652 2494.76 607.027H2497.2V629H2526.01V443.697H2496.71V517.184H2494.27C2489.27 501.681 2475.47 493.014 2456.19 493.014C2425.55 493.014 2406.5 514.62 2406.5 550.143V573.946C2406.5 609.591 2425.55 631.075 2456.19 631.075ZM2466.44 606.295C2447.28 606.295 2435.44 593.233 2435.44 572.237V551.363C2435.44 530.367 2447.28 517.184 2466.44 517.184C2485.48 517.184 2497.33 530.245 2497.33 551.363V572.237C2497.33 593.233 2485.48 606.295 2466.44 606.295Z"
    fill="white" fill-opacity="0.9" />
  <path d="M1604.62 670.138V645.235H1477.92V670.138H1604.62Z" fill="white" fill-opacity="0.2" />
  <path
    d="M1824.6 457.979V496.188H1789.44V519.137H1824.6V587.74C1824.6 617.403 1839.12 629.366 1874.28 629.366C1878.31 629.366 1900.77 629 1902.96 628.634V605.929C1900.65 606.173 1881.36 606.295 1876.48 606.295C1861.34 606.295 1852.92 599.703 1852.92 587.862V519.137H1904.06V496.188H1852.43V457.979H1824.6Z"
    fill="white" fill-opacity="0.2" />
  <path
    d="M2036.63 592.745C2033.82 602.633 2022.47 609.103 2007.7 609.103C1988.29 609.103 1975.72 595.919 1975.72 575.533V569.063H2063.85V552.828C2063.85 515.719 2042 492.647 2006.85 492.647C1971.32 492.647 1947.76 515.841 1947.76 550.875V571.749C1947.76 609.835 1969.74 631.686 2007.82 631.686C2037.73 631.686 2060.44 615.694 2063.61 592.745H2036.63ZM2006.36 515.108C2025.04 515.108 2036.27 528.292 2036.27 550.021H1975.72C1975.72 528.17 1987.19 515.108 2006.36 515.108Z"
    fill="white" fill-opacity="0.2" />
  <path
    d="M2107.43 533.175C2107.43 553.072 2119.88 565.768 2144.54 571.261L2164.56 575.655C2179.82 578.951 2185.44 583.468 2185.44 592.257C2185.44 602.633 2175.67 609.469 2160.17 609.469C2145.03 609.469 2134.9 603.487 2132.46 592.989H2104.26C2106.21 617.159 2126.96 631.686 2159.68 631.686C2193.25 631.686 2214.61 614.962 2214.61 588.961C2214.61 568.941 2202.77 557.589 2176.04 551.852L2156.14 547.579C2141.61 544.405 2135.51 539.522 2135.51 530.978C2135.51 520.968 2144.91 514.376 2159.19 514.376C2172.98 514.376 2182.63 520.602 2184.58 530.611H2211.44C2209.61 506.563 2190.2 492.403 2159.56 492.403C2127.94 492.403 2107.43 508.272 2107.43 533.175Z"
    fill="white" fill-opacity="0.2" />
  <path
    d="M2288.22 457.979V496.188H2253.06V519.137H2288.22V587.74C2288.22 617.403 2302.75 629.366 2337.9 629.366C2341.93 629.366 2364.39 629 2366.59 628.634V605.929C2364.27 606.173 2344.98 606.295 2340.1 606.295C2324.96 606.295 2316.54 599.703 2316.54 587.862V519.137H2367.69V496.188H2316.05V457.979H2288.22Z"
    fill="white" fill-opacity="0.2" />
  <path d="M1604.62 670.138V645.235H1477.92V670.138H1604.62Z" fill="white" fill-opacity="0.2" />
  <path
    d="M1908.95 539.889C1905.77 509.249 1885.63 492.281 1852.92 492.281C1814.71 492.281 1793.1 514.62 1793.1 554.293V569.674C1793.1 609.469 1814.71 631.686 1852.92 631.686C1885.51 631.686 1905.89 614.84 1908.95 584.933H1881.11C1878.67 599.703 1868.3 607.76 1852.67 607.76C1832.65 607.76 1821.67 593.355 1821.67 567.11V556.856C1821.67 530.611 1832.65 516.207 1852.67 516.207C1868.17 516.207 1878.79 524.63 1881.11 539.889H1908.95Z"
    fill="white" fill-opacity="0.2" />
  <path
    d="M2004.89 631.686C2041.76 631.686 2065.07 608.736 2065.07 572.359V551.974C2065.07 515.597 2041.76 492.647 2004.89 492.647C1968.03 492.647 1944.71 515.597 1944.71 551.974V572.359C1944.71 608.736 1968.03 631.686 2004.89 631.686ZM2004.89 516.207C2024.67 516.207 2037 530.489 2037 553.561V570.772C2037 593.844 2024.67 608.126 2004.89 608.126C1985.12 608.126 1972.79 593.844 1972.79 570.772V553.561C1972.79 530.489 1985.12 516.207 2004.89 516.207Z"
    fill="white" fill-opacity="0.2" />
  <path
    d="M2225.72 527.438C2225.72 504.732 2216.56 492.647 2199.23 492.647C2186.17 492.647 2176.28 500.948 2173.23 514.62H2170.18C2167.37 500.582 2158.82 492.647 2146.37 492.647C2133.56 492.647 2124.16 500.826 2121.1 515.353H2118.05V495.333H2093.15V629H2117.56V537.813C2117.56 525.24 2123.67 517.306 2133.19 517.306C2142.34 517.306 2147.47 524.142 2147.47 536.471V629H2171.76V537.813C2171.76 525.24 2177.62 517.306 2187.02 517.306C2196.06 517.306 2201.3 524.264 2201.3 536.471V629H2225.72V527.438Z"
    fill="white" fill-opacity="0.2" />
  <path
    d="M2326.3 493.136C2307.02 493.136 2293.47 501.681 2287.85 517.306H2285.41V495.333H2256.6V673.8H2285.9V607.149H2288.34C2293.35 622.53 2307.02 631.319 2326.3 631.319C2357.07 631.319 2376.11 609.713 2376.11 574.068V550.265C2376.11 514.742 2357.07 493.136 2326.3 493.136ZM2316.17 518.038C2335.34 518.038 2347.18 531.1 2347.18 552.096V573.092C2347.18 593.966 2335.34 607.149 2316.17 607.149C2297.13 607.149 2285.29 594.088 2285.29 573.092V552.096C2285.29 531.1 2297.13 518.038 2316.17 518.038Z"
    fill="white" fill-opacity="0.2" />
  <path
    d="M2470.59 465.67C2482.8 465.67 2491.34 457.735 2491.34 446.261C2491.34 434.786 2482.8 426.852 2470.59 426.852C2458.51 426.852 2449.96 434.786 2449.96 446.261C2449.96 457.735 2458.51 465.67 2470.59 465.67ZM2527.35 629V606.295H2485.36V495.333H2415.05V518.038H2457.65V606.295H2413.58V629H2527.35Z"
    fill="white" fill-opacity="0.2" />
  <path d="M2681.9 629V606.295H2640.27V443.697H2569.59V466.402H2611.95V606.295H2568.13V629H2681.9Z" fill="white"
    fill-opacity="0.2" />
  <path
    d="M2809.34 592.745C2806.53 602.633 2795.18 609.103 2780.41 609.103C2761 609.103 2748.42 595.919 2748.42 575.533V569.063H2836.56V552.828C2836.56 515.719 2814.71 492.647 2779.55 492.647C2744.03 492.647 2720.47 515.841 2720.47 550.875V571.749C2720.47 609.835 2742.44 631.686 2780.53 631.686C2810.44 631.686 2833.14 615.694 2836.31 592.745H2809.34ZM2779.06 515.108C2797.74 515.108 2808.97 528.292 2808.97 550.021H2748.42C2748.42 528.17 2759.9 515.108 2779.06 515.108Z"
    fill="white" fill-opacity="0.2" />
  <path d="M1604.62 670.138V645.235H1477.92V670.138H1604.62Z" fill="white" fill-opacity="0.2" />
  <path
    d="M1798.35 533.175C1798.35 553.072 1810.8 565.768 1835.46 571.261L1855.48 575.655C1870.74 578.951 1876.35 583.468 1876.35 592.257C1876.35 602.633 1866.59 609.469 1851.08 609.469C1835.95 609.469 1825.82 603.487 1823.38 592.989H1795.18C1797.13 617.159 1817.88 631.686 1850.6 631.686C1884.17 631.686 1905.53 614.962 1905.53 588.961C1905.53 568.941 1893.69 557.589 1866.95 551.852L1847.06 547.579C1832.53 544.405 1826.43 539.522 1826.43 530.978C1826.43 520.968 1835.83 514.376 1850.11 514.376C1863.9 514.376 1873.55 520.602 1875.5 530.611H1902.35C1900.52 506.563 1881.11 492.403 1850.47 492.403C1818.86 492.403 1798.35 508.272 1798.35 533.175Z"
    fill="white" fill-opacity="0.2" />
  <path
    d="M1992.56 631.075C2011.97 631.075 2025.52 622.652 2031.14 607.027H2033.58V629H2062.39V443.697H2033.09V517.184H2030.65C2025.65 501.681 2011.85 493.014 1992.56 493.014C1961.92 493.014 1942.88 514.62 1942.88 550.143V573.946C1942.88 609.591 1961.92 631.075 1992.56 631.075ZM2002.82 606.295C1983.65 606.295 1971.81 593.233 1971.81 572.237V551.363C1971.81 530.367 1983.65 517.184 2002.82 517.184C2021.86 517.184 2033.7 530.245 2033.7 551.363V572.237C2033.7 593.233 2021.86 606.295 2002.82 606.295Z"
    fill="white" fill-opacity="0.2" />
  <path
    d="M2140.15 551.607H2138.32V443.697H2110V629H2138.32V582.857L2153.33 567.965L2194.83 629H2227.92L2174.08 549.776L2224.5 495.333H2191.42L2140.15 551.607Z"
    fill="white" fill-opacity="0.2" />
  <path
    d="M2313.98 537.691C2327.65 537.691 2338.88 526.217 2338.88 512.179C2338.88 498.141 2327.65 486.788 2313.98 486.788C2300.3 486.788 2289.07 498.141 2289.07 512.179C2289.07 526.217 2300.3 537.691 2313.98 537.691ZM2313.98 630.709C2327.65 630.709 2338.88 619.112 2338.88 605.196C2338.88 591.158 2327.65 579.806 2313.98 579.806C2300.3 579.806 2289.07 591.158 2289.07 605.196C2289.07 619.112 2300.3 630.709 2313.98 630.709Z"
    fill="white" fill-opacity="0.2" />
  <path
    d="M2464.85 569.43C2464.85 538.546 2481.09 521.7 2511.97 521.7C2519.3 521.7 2528.09 523.165 2534.07 525.484V494.601C2529.43 492.77 2522.47 491.793 2514.9 491.793C2489.51 491.793 2474.62 503.756 2469.13 529.513H2464.98V495.333H2408.95V516.573H2437.51V607.76H2411.51V629H2504.65V607.76H2464.85V569.43Z"
    fill="white" fill-opacity="0.2" />
  <path
    d="M2680.8 495.333H2652.35V573.214C2652.35 593.478 2639.9 606.661 2620.86 606.661C2602.55 606.661 2593.76 596.529 2593.76 575.045V495.333H2565.32V581.881C2565.32 614.352 2581.07 631.686 2610.12 631.686C2629.77 631.686 2644.54 622.53 2651.38 606.173H2653.33V629H2680.8V495.333Z"
    fill="white" fill-opacity="0.2" />
  <path
    d="M2719.86 629H2748.3V551.119C2748.3 530.855 2760.75 517.55 2779.8 517.55C2798.11 517.55 2806.9 527.804 2806.9 549.288V629H2835.34V542.33C2835.34 509.981 2819.59 492.647 2790.54 492.647C2770.88 492.647 2756.11 501.803 2749.28 518.16H2747.33V495.333H2719.86V629Z"
    fill="white" fill-opacity="0.2" />
  <path d="M1604.62 670.138V645.235H1477.92V670.138H1604.62Z" fill="white" fill-opacity="0.2" />
  <path
    d="M1852.43 465.67C1864.63 465.67 1873.18 457.735 1873.18 446.261C1873.18 434.786 1864.63 426.852 1852.43 426.852C1840.34 426.852 1831.8 434.786 1831.8 446.261C1831.8 457.735 1840.34 465.67 1852.43 465.67ZM1909.19 629V606.295H1867.2V495.333H1796.89V518.038H1839.49V606.295H1795.42V629H1909.19Z"
    fill="white" fill-opacity="0.2" />
  <path
    d="M1947.15 629H1975.6V551.119C1975.6 530.855 1988.05 517.55 2007.09 517.55C2025.4 517.55 2034.19 527.804 2034.19 549.288V629H2062.63V542.33C2062.63 509.981 2046.89 492.647 2017.83 492.647C1998.18 492.647 1983.41 501.803 1976.57 518.16H1974.62V495.333H1947.15V629Z"
    fill="white" fill-opacity="0.2" />
  <path
    d="M2107.43 533.175C2107.43 553.072 2119.88 565.768 2144.54 571.261L2164.56 575.655C2179.82 578.951 2185.44 583.468 2185.44 592.257C2185.44 602.633 2175.67 609.469 2160.17 609.469C2145.03 609.469 2134.9 603.487 2132.46 592.989H2104.26C2106.21 617.159 2126.96 631.686 2159.68 631.686C2193.25 631.686 2214.61 614.962 2214.61 588.961C2214.61 568.941 2202.77 557.589 2176.04 551.852L2156.14 547.579C2141.61 544.405 2135.51 539.522 2135.51 530.978C2135.51 520.968 2144.91 514.376 2159.19 514.376C2172.98 514.376 2182.63 520.602 2184.58 530.611H2211.44C2209.61 506.563 2190.2 492.403 2159.56 492.403C2127.94 492.403 2107.43 508.272 2107.43 533.175Z"
    fill="white" fill-opacity="0.2" />
  <path
    d="M2288.22 457.979V496.188H2253.06V519.137H2288.22V587.74C2288.22 617.403 2302.75 629.366 2337.9 629.366C2341.93 629.366 2364.39 629 2366.59 628.634V605.929C2364.27 606.173 2344.98 606.295 2340.1 606.295C2324.96 606.295 2316.54 599.703 2316.54 587.862V519.137H2367.69V496.188H2316.05V457.979H2288.22Z"
    fill="white" fill-opacity="0.2" />
  <path
    d="M2452.28 631.197C2470.47 631.197 2484.75 623.629 2491.22 610.323H2493.79V629H2520.76V537.936C2520.76 509.371 2501.96 493.136 2468.88 493.136C2438.85 493.136 2417.25 508.395 2414.81 531.466H2442.64C2445.57 521.7 2455.09 516.085 2468.15 516.085C2483.78 516.085 2492.69 523.897 2492.69 537.691V548.922L2459.24 550.875C2427.26 552.828 2409.92 566.988 2409.92 590.914C2409.92 615.084 2426.89 631.197 2452.28 631.197ZM2461.44 608.004C2447.15 608.004 2438.12 600.802 2438.12 589.205C2438.12 577.364 2446.79 570.65 2463.51 569.674L2492.69 568.087V580.294C2492.69 596.407 2479.5 608.004 2461.44 608.004Z"
    fill="white" fill-opacity="0.2" />
  <path d="M2681.9 629V606.295H2640.27V443.697H2569.59V466.402H2611.95V606.295H2568.13V629H2681.9Z" fill="white"
    fill-opacity="0.2" />
  <path d="M2836.44 629V606.295H2794.81V443.697H2724.13V466.402H2766.49V606.295H2722.67V629H2836.44Z" fill="white"
    fill-opacity="0.2" />
  <path d="M1604.62 670.138V645.235H1477.92V670.138H1604.62Z" fill="white" fill-opacity="0.2" />
  <path
    d="M1908.95 539.889C1905.77 509.249 1885.63 492.281 1852.92 492.281C1814.71 492.281 1793.1 514.62 1793.1 554.293V569.674C1793.1 609.469 1814.71 631.686 1852.92 631.686C1885.51 631.686 1905.89 614.84 1908.95 584.933H1881.11C1878.67 599.703 1868.3 607.76 1852.67 607.76C1832.65 607.76 1821.67 593.355 1821.67 567.11V556.856C1821.67 530.611 1832.65 516.207 1852.67 516.207C1868.17 516.207 1878.79 524.63 1881.11 539.889H1908.95Z"
    fill="white" fill-opacity="0.2" />
  <path
    d="M2004.89 631.686C2041.76 631.686 2065.07 608.736 2065.07 572.359V551.974C2065.07 515.597 2041.76 492.647 2004.89 492.647C1968.03 492.647 1944.71 515.597 1944.71 551.974V572.359C1944.71 608.736 1968.03 631.686 2004.89 631.686ZM2004.89 516.207C2024.67 516.207 2037 530.489 2037 553.561V570.772C2037 593.844 2024.67 608.126 2004.89 608.126C1985.12 608.126 1972.79 593.844 1972.79 570.772V553.561C1972.79 530.489 1985.12 516.207 2004.89 516.207Z"
    fill="white" fill-opacity="0.2" />
  <path
    d="M2225.72 527.438C2225.72 504.732 2216.56 492.647 2199.23 492.647C2186.17 492.647 2176.28 500.948 2173.23 514.62H2170.18C2167.37 500.582 2158.82 492.647 2146.37 492.647C2133.56 492.647 2124.16 500.826 2121.1 515.353H2118.05V495.333H2093.15V629H2117.56V537.813C2117.56 525.24 2123.67 517.306 2133.19 517.306C2142.34 517.306 2147.47 524.142 2147.47 536.471V629H2171.76V537.813C2171.76 525.24 2177.62 517.306 2187.02 517.306C2196.06 517.306 2201.3 524.264 2201.3 536.471V629H2225.72V527.438Z"
    fill="white" fill-opacity="0.2" />
  <path
    d="M2380.26 527.438C2380.26 504.732 2371.1 492.647 2353.77 492.647C2340.71 492.647 2330.82 500.948 2327.77 514.62H2324.72C2321.91 500.582 2313.37 492.647 2300.91 492.647C2288.1 492.647 2278.7 500.826 2275.65 515.353H2272.59V495.333H2247.69V629H2272.11V537.813C2272.11 525.24 2278.21 517.306 2287.73 517.306C2296.89 517.306 2302.01 524.142 2302.01 536.471V629H2326.3V537.813C2326.3 525.24 2332.16 517.306 2341.56 517.306C2350.6 517.306 2355.85 524.264 2355.85 536.471V629H2380.26V527.438Z"
    fill="white" fill-opacity="0.2" />
  <path
    d="M2452.28 631.197C2470.47 631.197 2484.75 623.629 2491.22 610.323H2493.79V629H2520.76V537.936C2520.76 509.371 2501.96 493.136 2468.88 493.136C2438.85 493.136 2417.25 508.395 2414.81 531.466H2442.64C2445.57 521.7 2455.09 516.085 2468.15 516.085C2483.78 516.085 2492.69 523.897 2492.69 537.691V548.922L2459.24 550.875C2427.26 552.828 2409.92 566.988 2409.92 590.914C2409.92 615.084 2426.89 631.197 2452.28 631.197ZM2461.44 608.004C2447.15 608.004 2438.12 600.802 2438.12 589.205C2438.12 577.364 2446.79 570.65 2463.51 569.674L2492.69 568.087V580.294C2492.69 596.407 2479.5 608.004 2461.44 608.004Z"
    fill="white" fill-opacity="0.2" />
  <path
    d="M2565.32 629H2593.76V551.119C2593.76 530.855 2606.21 517.55 2625.25 517.55C2643.57 517.55 2652.35 527.804 2652.35 549.288V629H2680.8V542.33C2680.8 509.981 2665.05 492.647 2636 492.647C2616.34 492.647 2601.57 501.803 2594.74 518.16H2592.78V495.333H2565.32V629Z"
    fill="white" fill-opacity="0.2" />
  <path
    d="M2765.27 631.075C2784.68 631.075 2798.23 622.652 2803.84 607.027H2806.29V629H2835.09V443.697H2805.8V517.184H2803.36C2798.35 501.681 2784.56 493.014 2765.27 493.014C2734.63 493.014 2715.59 514.62 2715.59 550.143V573.946C2715.59 609.591 2734.63 631.075 2765.27 631.075ZM2775.52 606.295C2756.36 606.295 2744.52 593.233 2744.52 572.237V551.363C2744.52 530.367 2756.36 517.184 2775.52 517.184C2794.57 517.184 2806.41 530.245 2806.41 551.363V572.237C2806.41 593.233 2794.57 606.295 2775.52 606.295Z"
    fill="white" fill-opacity="0.2" />
  <path d="M1604.62 670.138V645.235H1477.92V670.138H1604.62Z" fill="white" fill-opacity="0.2" />
  <path
    d="M1846.57 679.293C1884.53 679.293 1907.6 660.25 1907.6 628.878V495.333H1879.65V517.184H1877.21C1872.33 502.291 1857.43 493.014 1838.02 493.014C1806.29 493.014 1786.88 514.62 1786.88 550.143V571.993C1786.88 607.271 1806.04 629.122 1836.92 629.122C1856.58 629.122 1871.96 619.723 1876.72 604.952H1879.16V629.122C1879.16 647.799 1867.81 657.809 1846.93 657.809C1831.07 657.809 1819.22 651.583 1816.78 641.939H1788.95C1791.39 665.011 1813.37 679.293 1846.57 679.293ZM1815.81 570.162V551.363C1815.81 530.489 1828.14 517.184 1847.42 517.184C1866.59 517.184 1878.92 530.489 1878.92 551.363V570.162C1878.92 591.036 1866.59 604.342 1847.42 604.342C1828.14 604.342 1815.81 591.036 1815.81 570.162Z"
    fill="white" fill-opacity="0.2" />
  <path
    d="M2006.97 465.67C2019.18 465.67 2027.72 457.735 2027.72 446.261C2027.72 434.786 2019.18 426.852 2006.97 426.852C1994.88 426.852 1986.34 434.786 1986.34 446.261C1986.34 457.735 1994.88 465.67 2006.97 465.67ZM2063.73 629V606.295H2021.74V495.333H1951.43V518.038H1994.03V606.295H1949.96V629H2063.73Z"
    fill="white" fill-opacity="0.2" />
  <path
    d="M2133.68 457.979V496.188H2098.52V519.137H2133.68V587.74C2133.68 617.403 2148.2 629.366 2183.36 629.366C2187.39 629.366 2209.85 629 2212.05 628.634V605.929C2209.73 606.173 2190.44 606.295 2185.56 606.295C2170.42 606.295 2162 599.703 2162 587.862V519.137H2213.15V496.188H2161.51V457.979H2133.68Z"
    fill="white" fill-opacity="0.2" />
  <path
    d="M2255.99 629H2284.31V551.485C2284.31 531.222 2297.01 517.794 2316.29 517.794C2334.73 517.794 2343.64 528.17 2343.64 549.532V629H2372.08V542.574C2372.08 510.47 2356.21 492.892 2327.04 492.892C2307.26 492.892 2292.12 502.169 2285.41 518.404H2283.58V443.697H2255.99V629Z"
    fill="white" fill-opacity="0.2" />
  <path
    d="M2526.26 495.333H2497.81V573.214C2497.81 593.478 2485.36 606.661 2466.32 606.661C2448.01 606.661 2439.22 596.529 2439.22 575.045V495.333H2410.78V581.881C2410.78 614.352 2426.52 631.686 2455.58 631.686C2475.23 631.686 2490 622.53 2496.84 606.173H2498.79V629H2526.26V495.333Z"
    fill="white" fill-opacity="0.2" />
  <path
    d="M2635.39 631.075C2666.15 631.075 2685.07 609.591 2685.07 573.946V550.143C2685.07 514.62 2666.15 493.014 2635.39 493.014C2616.1 493.014 2602.43 501.681 2597.42 517.184H2594.98V443.697H2565.56V629H2594.49V607.027H2596.93C2602.43 622.652 2615.98 631.075 2635.39 631.075ZM2625.25 606.295C2606.21 606.295 2594.25 593.233 2594.25 572.237V551.363C2594.25 530.245 2606.21 517.184 2625.25 517.184C2644.3 517.184 2656.26 530.367 2656.26 551.363V572.237C2656.26 593.233 2644.3 606.295 2625.25 606.295Z"
    fill="white" fill-opacity="0.2" />
  <path d="M1604.62 670.138V645.235H1477.92V670.138H1604.62Z" fill="white" fill-opacity="0.2" />
  <path
    d="M1908.95 539.889C1905.77 509.249 1885.63 492.281 1852.92 492.281C1814.71 492.281 1793.1 514.62 1793.1 554.293V569.674C1793.1 609.469 1814.71 631.686 1852.92 631.686C1885.51 631.686 1905.89 614.84 1908.95 584.933H1881.11C1878.67 599.703 1868.3 607.76 1852.67 607.76C1832.65 607.76 1821.67 593.355 1821.67 567.11V556.856C1821.67 530.611 1832.65 516.207 1852.67 516.207C1868.17 516.207 1878.79 524.63 1881.11 539.889H1908.95Z"
    fill="white" fill-opacity="0.2" />
  <path d="M2063.73 629V606.295H2022.11V443.697H1951.43V466.402H1993.79V606.295H1949.96V629H2063.73Z" fill="white"
    fill-opacity="0.2" />
  <path
    d="M2159.43 631.686C2196.3 631.686 2219.62 608.736 2219.62 572.359V551.974C2219.62 515.597 2196.3 492.647 2159.43 492.647C2122.57 492.647 2099.25 515.597 2099.25 551.974V572.359C2099.25 608.736 2122.57 631.686 2159.43 631.686ZM2159.43 516.207C2179.21 516.207 2191.54 530.489 2191.54 553.561V570.772C2191.54 593.844 2179.21 608.126 2159.43 608.126C2139.66 608.126 2127.33 593.844 2127.33 570.772V553.561C2127.33 530.489 2139.66 516.207 2159.43 516.207Z"
    fill="white" fill-opacity="0.2" />
  <path
    d="M2371.71 495.333H2343.27V573.214C2343.27 593.478 2330.82 606.661 2311.78 606.661C2293.47 606.661 2284.68 596.529 2284.68 575.045V495.333H2256.24V581.881C2256.24 614.352 2271.98 631.686 2301.04 631.686C2320.69 631.686 2335.46 622.53 2342.3 606.173H2344.25V629H2371.71V495.333Z"
    fill="white" fill-opacity="0.2" />
  <path
    d="M2456.19 631.075C2475.6 631.075 2489.15 622.652 2494.76 607.027H2497.2V629H2526.01V443.697H2496.71V517.184H2494.27C2489.27 501.681 2475.47 493.014 2456.19 493.014C2425.55 493.014 2406.5 514.62 2406.5 550.143V573.946C2406.5 609.591 2425.55 631.075 2456.19 631.075ZM2466.44 606.295C2447.28 606.295 2435.44 593.233 2435.44 572.237V551.363C2435.44 530.367 2447.28 517.184 2466.44 517.184C2485.48 517.184 2497.33 530.245 2497.33 551.363V572.237C2497.33 593.233 2485.48 606.295 2466.44 606.295Z"
    fill="white" fill-opacity="0.2" />
  <defs>
    <linearGradient id="paint0_linear" x1="4320" y1="540" x2="-2.83401e-05" y2="540" gradientUnits="userSpaceOnUse">
      <stop stop-color="#0060FF" />
      <stop offset="1" stop-color="#0096FF" />
    </linearGradient>
  </defs>
</svg>
